<svg width="0" height="0" class="hidden">
  <symbol fill="none" xmlns="http://www.w3.org/2000/svg" viewBox="0 0 14 9" id="arrow-down">
    <path d="M6.33594 8.28906C6.6875 8.64062 7.27344 8.64062 7.625 8.28906L12.9375 2.97656C13.3281 2.58594 13.3281 2 12.9375 1.64844L12.0781 0.75C11.6875 0.398438 11.1016 0.398438 10.75 0.75L6.96094 4.53906L3.21094 0.75C2.85938 0.398438 2.27344 0.398438 1.88281 0.75L1.02344 1.64844C0.632812 2 0.632812 2.58594 1.02344 2.97656L6.33594 8.28906Z" fill="#333333"></path>
  </symbol>

  <symbol fill="none" xmlns="http://www.w3.org/2000/svg" viewBox="0 0 18 18" id="inst">
    <path d="M9 4.4917C6.5 4.4917 4.50781 6.52295 4.50781 8.98389C4.50781 11.4839 6.5 13.4761 9 13.4761C11.4609 13.4761 13.4922 11.4839 13.4922 8.98389C13.4922 6.52295 11.4609 4.4917 9 4.4917ZM9 11.9136C7.39844 11.9136 6.07031 10.6245 6.07031 8.98389C6.07031 7.38232 7.35938 6.09326 9 6.09326C10.6016 6.09326 11.8906 7.38232 11.8906 8.98389C11.8906 10.6245 10.6016 11.9136 9 11.9136ZM14.7031 4.33545C14.7031 3.74951 14.2344 3.28076 13.6484 3.28076C13.0625 3.28076 12.5938 3.74951 12.5938 4.33545C12.5938 4.92139 13.0625 5.39014 13.6484 5.39014C14.2344 5.39014 14.7031 4.92139 14.7031 4.33545ZM17.6719 5.39014C17.5938 3.98389 17.2812 2.73389 16.2656 1.71826C15.25 0.702637 14 0.390137 12.5938 0.312012C11.1484 0.233887 6.8125 0.233887 5.36719 0.312012C3.96094 0.390137 2.75 0.702637 1.69531 1.71826C0.679688 2.73389 0.367188 3.98389 0.289062 5.39014C0.210938 6.83545 0.210938 11.1714 0.289062 12.6167C0.367188 14.0229 0.679688 15.2339 1.69531 16.2886C2.75 17.3042 3.96094 17.6167 5.36719 17.6948C6.8125 17.7729 11.1484 17.7729 12.5938 17.6948C14 17.6167 15.25 17.3042 16.2656 16.2886C17.2812 15.2339 17.5938 14.0229 17.6719 12.6167C17.75 11.1714 17.75 6.83545 17.6719 5.39014ZM15.7969 14.1401C15.5234 14.9214 14.8984 15.5073 14.1562 15.8198C12.9844 16.2886 10.25 16.1714 9 16.1714C7.71094 16.1714 4.97656 16.2886 3.84375 15.8198C3.0625 15.5073 2.47656 14.9214 2.16406 14.1401C1.69531 13.0073 1.8125 10.2729 1.8125 8.98389C1.8125 7.73389 1.69531 4.99951 2.16406 3.82764C2.47656 3.08545 3.0625 2.49951 3.84375 2.18701C4.97656 1.71826 7.71094 1.83545 9 1.83545C10.25 1.83545 12.9844 1.71826 14.1562 2.18701C14.8984 2.46045 15.4844 3.08545 15.7969 3.82764C16.2656 4.99951 16.1484 7.73389 16.1484 8.98389C16.1484 10.2729 16.2656 13.0073 15.7969 14.1401Z" fill="white"></path>
  </symbol>

  <symbol fill="none" xmlns="http://www.w3.org/2000/svg" viewBox="0 0 20 18" id="twitter">
    <path d="M17.9297 4.92139C17.9557 5.02555 17.9688 5.19482 17.9688 5.4292C17.9688 7.3042 17.513 9.1141 16.6016 10.8589C15.6641 12.7078 14.349 14.1792 12.6562 15.2729C10.8073 16.4969 8.6849 17.1089 6.28906 17.1089C3.9974 17.1089 1.90104 16.4969 0 15.2729C0.286458 15.299 0.611979 15.312 0.976562 15.312C2.8776 15.312 4.58333 14.7261 6.09375 13.5542C5.18229 13.5542 4.375 13.2938 3.67188 12.7729C2.99479 12.2261 2.52604 11.549 2.26562 10.7417C2.52604 10.7677 2.77344 10.7808 3.00781 10.7808C3.3724 10.7808 3.73698 10.7417 4.10156 10.6636C3.16406 10.4552 2.38281 9.97347 1.75781 9.21826C1.13281 8.46305 0.820312 7.60368 0.820312 6.64014V6.56201C1.39323 6.90055 2.00521 7.08285 2.65625 7.10889C2.10938 6.71826 1.66667 6.22347 1.32812 5.62451C0.989583 5.02555 0.820312 4.37451 0.820312 3.67139C0.820312 2.94222 1.01562 2.25212 1.40625 1.60107C2.42188 2.87712 3.65885 3.89274 5.11719 4.64795C6.60156 5.40316 8.17708 5.81982 9.84375 5.89795C9.79167 5.58545 9.76562 5.27295 9.76562 4.96045C9.76562 4.23128 9.94792 3.5542 10.3125 2.9292C10.6771 2.27816 11.1719 1.77035 11.7969 1.40576C12.4219 1.04118 13.099 0.858887 13.8281 0.858887C14.4271 0.858887 14.974 0.976074 15.4688 1.21045C15.9896 1.44482 16.4453 1.75732 16.8359 2.14795C17.7734 1.96566 18.6458 1.64014 19.4531 1.17139C19.1406 2.13493 18.5417 2.89014 17.6562 3.43701C18.4375 3.33285 19.2188 3.11149 20 2.77295C19.4271 3.60628 18.737 4.32243 17.9297 4.92139Z" fill="white"></path>
  </symbol>

  <symbol fill="none" xmlns="http://www.w3.org/2000/svg" viewBox="0 0 12 21" id="facebook">
    <path d="M3.85156 20.9839V12.0386H0.84375V8.48389H3.85156V5.67139C3.85156 4.18701 4.26823 3.04118 5.10156 2.23389C5.9349 1.40055 7.04167 0.983887 8.42188 0.983887C9.54167 0.983887 10.4531 1.03597 11.1562 1.14014V4.3042H9.28125C8.57812 4.3042 8.09635 4.46045 7.83594 4.77295C7.6276 5.03337 7.52344 5.45003 7.52344 6.02295V8.48389H10.8438L10.375 12.0386H7.52344V20.9839H3.85156Z" fill="white"></path>
  </symbol>

  <symbol fill="none" xmlns="http://www.w3.org/2000/svg" viewBox="0 0 15 15" id="phone">
    <path d="M14.4805 1.43359L11.6367 0.777344C11.3359 0.695312 11.0078 0.859375 10.8711 1.16016L9.55859 4.22266C9.44922 4.49609 9.53125 4.79688 9.75 4.98828L11.418 6.35547C10.4336 8.43359 8.71094 10.1836 6.57812 11.1953L5.21094 9.52734C5.01953 9.30859 4.71875 9.22656 4.44531 9.33594L1.38281 10.6484C1.08203 10.7852 0.945312 11.1133 1 11.4141L1.65625 14.2578C1.73828 14.5586 1.98438 14.75 2.3125 14.75C9.3125 14.75 15 9.08984 15 2.0625C15 1.76172 14.7812 1.51562 14.4805 1.43359Z" fill="#E8C300"></path>
  </symbol>
  <symbol fill="none" xmlns="http://www.w3.org/2000/svg" viewBox="0 0 11 15" id="location">
    <path d="M4.70312 14.4766C4.94922 14.8594 5.52344 14.8594 5.76953 14.4766C9.76172 8.73438 10.5 8.13281 10.5 6C10.5 3.10156 8.14844 0.75 5.25 0.75C2.32422 0.75 0 3.10156 0 6C0 8.13281 0.710938 8.73438 4.70312 14.4766ZM5.25 8.1875C4.01953 8.1875 3.0625 7.23047 3.0625 6C3.0625 4.79688 4.01953 3.8125 5.25 3.8125C6.45312 3.8125 7.4375 4.79688 7.4375 6C7.4375 7.23047 6.45312 8.1875 5.25 8.1875Z" fill="#E8C300"></path>
  </symbol>
  <symbol fill="none" xmlns="http://www.w3.org/2000/svg" viewBox="0 0 14 11" id="mail">
    <path d="M13.7266 3.97266C13.0977 4.46484 12.3047 5.06641 9.51562 7.08984C8.96875 7.5 7.95703 8.40234 7 8.40234C6.01562 8.40234 5.03125 7.5 4.45703 7.08984C1.66797 5.06641 0.875 4.46484 0.246094 3.97266C0.136719 3.89062 0 3.97266 0 4.10938L0 9.6875C0 10.4258 0.574219 11 1.3125 11H12.6875C13.3984 11 14 10.4258 14 9.6875V4.10938C14 3.97266 13.8359 3.89062 13.7266 3.97266ZM7 7.5C7.62891 7.52734 8.53125 6.70703 8.99609 6.37891C12.6328 3.75391 12.9062 3.50781 13.7266 2.85156C13.8906 2.74219 14 2.55078 14 2.33203V1.8125C14 1.10156 13.3984 0.5 12.6875 0.5H1.3125C0.574219 0.5 0 1.10156 0 1.8125L0 2.33203C0 2.55078 0.0820312 2.74219 0.246094 2.85156C1.06641 3.50781 1.33984 3.75391 4.97656 6.37891C5.44141 6.70703 6.34375 7.52734 7 7.5Z" fill="#E8C300"></path>
  </symbol>

  <symbol fill="none" xmlns="http://www.w3.org/2000/svg" viewBox="0 0 14 14" id="close">
    <path fill-rule="evenodd" clip-rule="evenodd" d="M13.7071 1.70711C14.0976 1.31658 14.0976 0.683418 13.7071 0.292893C13.3166 -0.0976311 12.6834 -0.0976311 12.2929 0.292893L7 5.58579L1.70711 0.292894C1.31658 -0.0976299 0.683417 -0.0976303 0.292893 0.292894C-0.0976313 0.683418 -0.0976309 1.31658 0.292893 1.70711L5.58579 7L0.292893 12.2929C-0.0976309 12.6834 -0.0976313 13.3166 0.292893 13.7071C0.683417 14.0976 1.31658 14.0976 1.70711 13.7071L7 8.41421L12.2929 13.7071C12.6834 14.0976 13.3166 14.0976 13.7071 13.7071C14.0976 13.3166 14.0976 12.6834 13.7071 12.2929L8.41421 7L13.7071 1.70711Z" fill="black"></path>
  </symbol>
</svg>