<svg width="0" height="0" class="hidden">
  <symbol fill="none" xmlns="http://www.w3.org/2000/svg" viewBox="0 0 14 9" id="arrow-down">
    <path d="M6.33594 8.28906C6.6875 8.64062 7.27344 8.64062 7.625 8.28906L12.9375 2.97656C13.3281 2.58594 13.3281 2 12.9375 1.64844L12.0781 0.75C11.6875 0.398438 11.1016 0.398438 10.75 0.75L6.96094 4.53906L3.21094 0.75C2.85938 0.398438 2.27344 0.398438 1.88281 0.75L1.02344 1.64844C0.632812 2 0.632812 2.58594 1.02344 2.97656L6.33594 8.28906Z" fill="#333333"></path>
  </symbol>

  <symbol fill="none" xmlns="http://www.w3.org/2000/svg" viewBox="0 0 18 18" id="inst">
    <path d="M9 4.4917C6.5 4.4917 4.50781 6.52295 4.50781 8.98389C4.50781 11.4839 6.5 13.4761 9 13.4761C11.4609 13.4761 13.4922 11.4839 13.4922 8.98389C13.4922 6.52295 11.4609 4.4917 9 4.4917ZM9 11.9136C7.39844 11.9136 6.07031 10.6245 6.07031 8.98389C6.07031 7.38232 7.35938 6.09326 9 6.09326C10.6016 6.09326 11.8906 7.38232 11.8906 8.98389C11.8906 10.6245 10.6016 11.9136 9 11.9136ZM14.7031 4.33545C14.7031 3.74951 14.2344 3.28076 13.6484 3.28076C13.0625 3.28076 12.5938 3.74951 12.5938 4.33545C12.5938 4.92139 13.0625 5.39014 13.6484 5.39014C14.2344 5.39014 14.7031 4.92139 14.7031 4.33545ZM17.6719 5.39014C17.5938 3.98389 17.2812 2.73389 16.2656 1.71826C15.25 0.702637 14 0.390137 12.5938 0.312012C11.1484 0.233887 6.8125 0.233887 5.36719 0.312012C3.96094 0.390137 2.75 0.702637 1.69531 1.71826C0.679688 2.73389 0.367188 3.98389 0.289062 5.39014C0.210938 6.83545 0.210938 11.1714 0.289062 12.6167C0.367188 14.0229 0.679688 15.2339 1.69531 16.2886C2.75 17.3042 3.96094 17.6167 5.36719 17.6948C6.8125 17.7729 11.1484 17.7729 12.5938 17.6948C14 17.6167 15.25 17.3042 16.2656 16.2886C17.2812 15.2339 17.5938 14.0229 17.6719 12.6167C17.75 11.1714 17.75 6.83545 17.6719 5.39014ZM15.7969 14.1401C15.5234 14.9214 14.8984 15.5073 14.1562 15.8198C12.9844 16.2886 10.25 16.1714 9 16.1714C7.71094 16.1714 4.97656 16.2886 3.84375 15.8198C3.0625 15.5073 2.47656 14.9214 2.16406 14.1401C1.69531 13.0073 1.8125 10.2729 1.8125 8.98389C1.8125 7.73389 1.69531 4.99951 2.16406 3.82764C2.47656 3.08545 3.0625 2.49951 3.84375 2.18701C4.97656 1.71826 7.71094 1.83545 9 1.83545C10.25 1.83545 12.9844 1.71826 14.1562 2.18701C14.8984 2.46045 15.4844 3.08545 15.7969 3.82764C16.2656 4.99951 16.1484 7.73389 16.1484 8.98389C16.1484 10.2729 16.2656 13.0073 15.7969 14.1401Z" fill="white"></path>
  </symbol>

  <symbol fill="none" xmlns="http://www.w3.org/2000/svg" viewBox="0 0 20 18" id="twitter">
    <path d="M17.9297 4.92139C17.9557 5.02555 17.9688 5.19482 17.9688 5.4292C17.9688 7.3042 17.513 9.1141 16.6016 10.8589C15.6641 12.7078 14.349 14.1792 12.6562 15.2729C10.8073 16.4969 8.6849 17.1089 6.28906 17.1089C3.9974 17.1089 1.90104 16.4969 0 15.2729C0.286458 15.299 0.611979 15.312 0.976562 15.312C2.8776 15.312 4.58333 14.7261 6.09375 13.5542C5.18229 13.5542 4.375 13.2938 3.67188 12.7729C2.99479 12.2261 2.52604 11.549 2.26562 10.7417C2.52604 10.7677 2.77344 10.7808 3.00781 10.7808C3.3724 10.7808 3.73698 10.7417 4.10156 10.6636C3.16406 10.4552 2.38281 9.97347 1.75781 9.21826C1.13281 8.46305 0.820312 7.60368 0.820312 6.64014V6.56201C1.39323 6.90055 2.00521 7.08285 2.65625 7.10889C2.10938 6.71826 1.66667 6.22347 1.32812 5.62451C0.989583 5.02555 0.820312 4.37451 0.820312 3.67139C0.820312 2.94222 1.01562 2.25212 1.40625 1.60107C2.42188 2.87712 3.65885 3.89274 5.11719 4.64795C6.60156 5.40316 8.17708 5.81982 9.84375 5.89795C9.79167 5.58545 9.76562 5.27295 9.76562 4.96045C9.76562 4.23128 9.94792 3.5542 10.3125 2.9292C10.6771 2.27816 11.1719 1.77035 11.7969 1.40576C12.4219 1.04118 13.099 0.858887 13.8281 0.858887C14.4271 0.858887 14.974 0.976074 15.4688 1.21045C15.9896 1.44482 16.4453 1.75732 16.8359 2.14795C17.7734 1.96566 18.6458 1.64014 19.4531 1.17139C19.1406 2.13493 18.5417 2.89014 17.6562 3.43701C18.4375 3.33285 19.2188 3.11149 20 2.77295C19.4271 3.60628 18.737 4.32243 17.9297 4.92139Z" fill="white"></path>
  </symbol>

  <symbol fill="none" xmlns="http://www.w3.org/2000/svg" viewBox="0 0 12 21" id="facebook">
    <path d="M3.85156 20.9839V12.0386H0.84375V8.48389H3.85156V5.67139C3.85156 4.18701 4.26823 3.04118 5.10156 2.23389C5.9349 1.40055 7.04167 0.983887 8.42188 0.983887C9.54167 0.983887 10.4531 1.03597 11.1562 1.14014V4.3042H9.28125C8.57812 4.3042 8.09635 4.46045 7.83594 4.77295C7.6276 5.03337 7.52344 5.45003 7.52344 6.02295V8.48389H10.8438L10.375 12.0386H7.52344V20.9839H3.85156Z" fill="white"></path>
  </symbol>
</svg>